{
	"asset":{
		"generator":"Khronos glTF Blender I/O v4.4.56",
		"version":"2.0"
	},
	"scene":0,
	"scenes":[
		{
			"name":"Scene",
			"nodes":[
				0
			]
		}
	],
	"nodes":[
		{
			"mesh":0,
			"name":"Mesh1.0"
		}
	],
	"meshes":[
		{
			"name":"Mesh1",
			"primitives":[
				{
					"attributes":{
						"POSITION":0,
						"NORMAL":1
					},
					"indices":2
				}
			]
		}
	],
	"accessors":[
		{
			"bufferView":0,
			"componentType":5126,
			"count":4540912,
			"max":[
				0.6069333553314209,
				0.6983041763305664,
				0.9520200490951538
			],
			"min":[
				-0.6068440079689026,
				-0.7040838003158569,
				-0.9588634371757507
			],
			"type":"VEC3"
		},
		{
			"bufferView":1,
			"componentType":5126,
			"count":4540912,
			"type":"VEC3"
		},
		{
			"bufferView":2,
			"componentType":5125,
			"count":4550631,
			"type":"SCALAR"
		}
	],
	"bufferViews":[
		{
			"buffer":0,
			"byteLength":54490944,
			"byteOffset":0,
			"target":34962
		},
		{
			"buffer":0,
			"byteLength":54490944,
			"byteOffset":54490944,
			"target":34962
		},
		{
			"buffer":0,
			"byteLength":18202524,
			"byteOffset":108981888,
			"target":34963
		}
	],
	"buffers":[
		{
			"byteLength":127184412,
			"uri":"torii.bin"
		}
	]
}
