{
  "asset": {
    "version": "2.0",
    "generator": "Python VAD Exporter - Plotly Style",
    "copyright": "\u88ab\u9a13\u80051 vs \u88ab\u9a13\u80052 vs \u3042\u308b\u30d6\u30e9\u30f3\u30c9\u306e\u30c6\u30ad\u30b9\u30c8"
  },
  "scene": 0,
  "scenes": [
    {
      "name": "VAD Space Comparison",
      "nodes": [
        0,
        1,
        2,
        3
      ]
    }
  ],
  "nodes": [
    {
      "name": "DataPoints",
      "mesh": 0
    },
    {
      "name": "Grid",
      "mesh": 1
    },
    {
      "name": "Axes",
      "mesh": 2
    },
    {
      "name": "Ticks",
      "mesh": 3
    }
  ],
  "meshes": [
    {
      "name": "VAD_Points",
      "primitives": [
        {
          "attributes": {
            "POSITION": 0,
            "COLOR_0": 1
          },
          "indices": 2,
          "mode": 4
        }
      ]
    },
    {
      "name": "Grid_Lines",
      "primitives": [
        {
          "attributes": {
            "POSITION": 3,
            "COLOR_0": 4
          },
          "indices": 5,
          "mode": 1
        }
      ]
    },
    {
      "name": "Axes_Lines",
      "primitives": [
        {
          "attributes": {
            "POSITION": 6,
            "COLOR_0": 7
          },
          "indices": 8,
          "mode": 1
        }
      ]
    },
    {
      "name": "Tick_Marks",
      "primitives": [
        {
          "attributes": {
            "POSITION": 9,
            "COLOR_0": 10
          },
          "indices": 11,
          "mode": 1
        }
      ]
    }
  ],
  "accessors": [
    {
      "bufferView": 0,
      "componentType": 5126,
      "count": 240,
      "type": "VEC3",
      "max": [
        0.950504314012299,
        0.32363976188480853,
        0.7855105306548302
      ],
      "min": [
        0.15441880954376286,
        -0.13945206957711626,
        -0.11272404759909425
      ]
    },
    {
      "bufferView": 1,
      "componentType": 5126,
      "count": 240,
      "type": "VEC4"
    },
    {
      "bufferView": 2,
      "componentType": 5125,
      "count": 1200,
      "type": "SCALAR"
    },
    {
      "bufferView": 3,
      "componentType": 5126,
      "count": 108,
      "type": "VEC3"
    },
    {
      "bufferView": 4,
      "componentType": 5126,
      "count": 108,
      "type": "VEC4"
    },
    {
      "bufferView": 5,
      "componentType": 5123,
      "count": 108,
      "type": "SCALAR"
    },
    {
      "bufferView": 6,
      "componentType": 5126,
      "count": 6,
      "type": "VEC3"
    },
    {
      "bufferView": 7,
      "componentType": 5126,
      "count": 6,
      "type": "VEC4"
    },
    {
      "bufferView": 8,
      "componentType": 5123,
      "count": 6,
      "type": "SCALAR"
    },
    {
      "bufferView": 9,
      "componentType": 5126,
      "count": 96,
      "type": "VEC3"
    },
    {
      "bufferView": 10,
      "componentType": 5126,
      "count": 96,
      "type": "VEC4"
    },
    {
      "bufferView": 11,
      "componentType": 5123,
      "count": 288,
      "type": "SCALAR"
    }
  ],
  "bufferViews": [
    {
      "buffer": 0,
      "byteOffset": 0,
      "byteLength": 2880,
      "target": 34962
    },
    {
      "buffer": 0,
      "byteOffset": 2880,
      "byteLength": 3840,
      "target": 34962
    },
    {
      "buffer": 0,
      "byteOffset": 6720,
      "byteLength": 4800,
      "target": 34963
    },
    {
      "buffer": 0,
      "byteOffset": 11520,
      "byteLength": 1296,
      "target": 34962
    },
    {
      "buffer": 0,
      "byteOffset": 12816,
      "byteLength": 1728,
      "target": 34962
    },
    {
      "buffer": 0,
      "byteOffset": 14544,
      "byteLength": 216,
      "target": 34963
    },
    {
      "buffer": 0,
      "byteOffset": 14760,
      "byteLength": 72,
      "target": 34962
    },
    {
      "buffer": 0,
      "byteOffset": 14832,
      "byteLength": 96,
      "target": 34962
    },
    {
      "buffer": 0,
      "byteOffset": 14928,
      "byteLength": 12,
      "target": 34963
    },
    {
      "buffer": 0,
      "byteOffset": 14940,
      "byteLength": 1152,
      "target": 34962
    },
    {
      "buffer": 0,
      "byteOffset": 16092,
      "byteLength": 1536,
      "target": 34962
    },
    {
      "buffer": 0,
      "byteOffset": 17628,
      "byteLength": 576,
      "target": 34963
    }
  ],
  "buffers": [
    {
      "byteLength": 18204,
      "uri": "data:application/octet-stream;base64,"
    }
  ]
}