{"scene":0,"asset":{"generator":"ImageToStl.com","version":"2.0"},"scenes":[{"name":"Scene","nodes":[0]}],"nodes":[{"name":"Node0","children":[1]},{"name":"Node1","mesh":0}],"materials":[{"name":"defaultMat","pbrMetallicRoughness":{"baseColorFactor":[0.64,0.64,0.64,1.0],"metallicFactor":0.5,"roughnessFactor":0.90392154},"emissiveFactor":[0.0,0.0,0.0],"doubleSided":true}],"meshes":[{"name":"Mesh0","primitives":[{"indices":3,"material":0,"attributes":{"POSITION":0,"NORMAL":1,"TEXCOORD_0":2}}]}],"accessors":[{"bufferView":0,"componentType":5126,"count":9910,"type":"VEC3","min":[-1.0260679,-1.4724219,-1.720963],"max":[1.8585851,3.324424,1.7073148]},{"bufferView":1,"componentType":5126,"count":9910,"type":"VEC3"},{"bufferView":2,"componentType":5126,"count":9910,"type":"VEC2"},{"bufferView":3,"componentType":5123,"count":79272,"type":"SCALAR"}],"bufferViews":[{"target":34962,"buffer":0,"byteLength":118920,"byteOffset":0},{"target":34962,"buffer":0,"byteLength":118920,"byteOffset":118920},{"target":34962,"buffer":0,"byteLength":79280,"byteOffset":237840},{"target":34963,"buffer":0,"byteLength":158544,"byteOffset":317120}],"buffers":[{"byteLength":475664,"uri":"data:application/octet-stream;base64,"}]}